<?xml version="1.0" encoding="utf-8"?>
<!-- Generator: Adobe Illustrator 27.4.1, SVG Export Plug-In . SVG Version: 6.00 Build 0)  -->
<svg version="1.1" id="Capa_1" xmlns="http://www.w3.org/2000/svg" xmlns:xlink="http://www.w3.org/1999/xlink" x="0px" y="0px"
	 viewBox="0 0 1000 1000" style="enable-background:new 0 0 1000 1000;" xml:space="preserve">
<style type="text/css">
	.st0{fill:#FFFFFF;}
</style>
<g>
	<path class="st0" d="M141.7,622.5V377.5h46.4v245.1H141.7z M188.1,483.2l-17.5-8.3c0-31.3,7.2-56.2,21.7-74.8
		c14.4-18.6,35.3-27.9,62.4-27.9c12.4,0,23.6,2.2,33.5,6.4c10,4.3,19.3,11.4,27.9,21.4l-30.4,31.5c-5.2-5.5-10.8-9.5-17-11.9
		c-6.2-2.4-13.4-3.6-21.7-3.6c-17.2,0-31.3,5.5-42.3,16.5C193.6,443.7,188.1,460.5,188.1,483.2z"/>
	<path class="st0" d="M445.1,627.7c-22.7,0-43.1-5.6-61.1-16.8c-18.1-11.2-32.3-26.4-42.8-45.7c-10.5-19.3-15.7-40.9-15.7-65
		c0-24.1,5.2-45.7,15.7-65c10.5-19.3,24.8-34.6,42.8-45.9c18.1-11.4,38.4-17,61.1-17c18.6,0,35.2,3.9,49.8,11.6
		c14.6,7.7,26.4,18.4,35.3,32c8.9,13.6,13.9,29.3,15,47.2v73.8c-1,17.5-5.9,33.2-14.7,46.9c-8.8,13.8-20.6,24.5-35.3,32.2
		C480.3,623.8,463.6,627.7,445.1,627.7z M452.8,583.8c23,0,41.6-7.8,55.7-23.5c14.1-15.6,21.2-35.7,21.2-60.1
		c0-16.5-3.3-31.1-9.8-43.9c-6.5-12.7-15.6-22.6-27.1-29.7c-11.5-7-25-10.6-40.5-10.6c-15.5,0-29.2,3.6-41,10.8
		c-11.9,7.2-21.2,17.1-27.9,29.7c-6.7,12.6-10.1,26.9-10.1,43.1c0,16.5,3.4,31,10.1,43.6c6.7,12.6,16.1,22.4,28.1,29.7
		C423.6,580.2,437.3,583.8,452.8,583.8z M526.6,622.5v-66l8.8-59.8l-8.8-59.3v-59.8h46.9v245.1H526.6z"/>
	<path class="st0" d="M615.8,622.5l101.1-136.2l26.3,34l-72.7,102.2H615.8z M802.1,622.5l-76.4-107.3l-8.8-7.7l-97-130h56.8
		l69.6,95.4l8.8,7.2l103.2,142.4H802.1z M758.7,506.4l-27.3-33l68.1-96h54.2L758.7,506.4z"/>
</g>
</svg>
