<?xml version="1.0" encoding="utf-8"?>
<!-- Generator: Adobe Illustrator 27.4.1, SVG Export Plug-In . SVG Version: 6.00 Build 0)  -->
<svg version="1.1" id="Capa_1" xmlns="http://www.w3.org/2000/svg" xmlns:xlink="http://www.w3.org/1999/xlink" x="0px" y="0px"
	 viewBox="0 0 1000 1000" style="enable-background:new 0 0 1000 1000;" xml:space="preserve">
<style type="text/css">
	.st0{fill:#FFFFFF;}
</style>
<g>
	<path class="st0" d="M436.9,118.5h55.2v29.8c7.6-12.9,27.1-33.8,71.2-33.8v53.8h-6.2c-56.5,0-65,39.2-65,76.1V329h-55.2V118.5z"/>
	<path class="st0" d="M375,502.7c0-85.9,64.5-109.5,102.3-109.5c52.5,0,73,30.3,75.6,34.3v-29.4h54.7l-0.4,161.1H625v49.4h-11.6
		c-39.2,0-53.4-17.4-57.8-27.1c0,0-21.4,31.1-78.3,31.1C409.7,612.6,375,560.1,375,502.7z M488.9,562.3h3.1
		c39.2,0,61.4-21.4,61.4-58.7c0-38.3-22.2-60.1-61-60.1h-3.1c-38.7,0-61,21.4-61,59.2C428.4,540.5,450.2,562.3,488.9,562.3z"/>
	<path class="st0" d="M462.2,770.3l-65.8-95.2h62.7l40.9,62.3l42.3-62.3h62.3l-68.1,95.2l85,115.2h-62.7l-59.2-81.9l-59.6,81.9
		h-62.3L462.2,770.3z"/>
</g>
</svg>
